<svg width="22" height="22" viewBox="0 0 22 22" fill="none" xmlns="http://www.w3.org/2000/svg">
<rect width="22" height="22" rx="3" fill="white" fill-opacity="0.8"/>
<g clip-path="url(#clip0_1_475)">
<path d="M14.7634 5.3491C14.9408 5.1717 15.1514 5.03098 15.3832 4.93497C15.615 4.83897 15.8634 4.78955 16.1143 4.78955C16.3652 4.78955 16.6136 4.83897 16.8454 4.93497C17.0772 5.03098 17.2878 5.1717 17.4652 5.3491C17.6426 5.5265 17.7833 5.73711 17.8793 5.96889C17.9753 6.20067 18.0247 6.4491 18.0247 6.69998C18.0247 6.95086 17.9753 7.19928 17.8793 7.43107C17.7833 7.66285 17.6426 7.87346 17.4652 8.05086L8.34675 17.1693L4.63184 18.1824L5.64499 14.4675L14.7634 5.3491Z" stroke="black" stroke-width="1.5" stroke-linecap="round" stroke-linejoin="round"/>
</g>
<defs>
<clipPath id="clip0_1_475">
<rect width="16.2105" height="16.2105" fill="white" transform="translate(2.31592 2.47363)"/>
</clipPath>
</defs>
</svg>
