<svg width="170" height="48" viewBox="0 0 170 48" fill="none" xmlns="http://www.w3.org/2000/svg">
<path d="M7.9165 31.9167H6.33317C5.49332 31.9167 4.68786 31.583 4.094 30.9892C3.50013 30.3953 3.1665 29.5899 3.1665 28.75V12.9167C3.1665 12.0768 3.50013 11.2714 4.094 10.6775C4.68786 10.0836 5.49332 9.75 6.33317 9.75H31.6665C32.5064 9.75 33.3118 10.0836 33.9057 10.6775C34.4995 11.2714 34.8332 12.0768 34.8332 12.9167V28.75C34.8332 29.5899 34.4995 30.3953 33.9057 30.9892C33.3118 31.583 32.5064 31.9167 31.6665 31.9167H30.0832" stroke="white" stroke-width="3" stroke-linecap="round" stroke-linejoin="round"/>
<path d="M19.0002 28.75L26.9168 38.25H11.0835L19.0002 28.75Z" stroke="#CC8E45" stroke-width="3" stroke-linecap="round" stroke-linejoin="round"/>
<path d="M64.144 28.234V23.598H69.92C70.6547 23.598 71.326 23.446 71.934 23.142C72.542 22.838 73.0233 22.3947 73.378 21.812C73.7327 21.2293 73.91 20.52 73.91 19.684C73.91 18.8733 73.7327 18.1767 73.378 17.594C73.0233 17.0113 72.542 16.568 71.934 16.264C71.326 15.96 70.6547 15.808 69.92 15.808H64.144V11.172H70.794C72.4913 11.172 74.024 11.514 75.392 12.198C76.76 12.882 77.8367 13.87 78.622 15.162C79.4327 16.4287 79.838 17.936 79.838 19.684C79.838 21.432 79.4327 22.952 78.622 24.244C77.8367 25.5107 76.76 26.4987 75.392 27.208C74.024 27.892 72.4913 28.234 70.794 28.234H64.144ZM59.584 38V11.172H65.55V38H59.584ZM82.9133 38V10.412H88.7273V38H82.9133ZM100.536 38.38C98.8382 38.38 97.3182 37.962 95.9755 37.126C94.6582 36.29 93.6069 35.15 92.8215 33.706C92.0615 32.262 91.6815 30.6153 91.6815 28.766C91.6815 26.9167 92.0615 25.27 92.8215 23.826C93.6069 22.382 94.6582 21.242 95.9755 20.406C97.3182 19.57 98.8382 19.152 100.536 19.152C101.777 19.152 102.892 19.3927 103.88 19.874C104.893 20.3553 105.716 21.0267 106.35 21.888C106.983 22.724 107.338 23.6867 107.414 24.776V32.756C107.338 33.8453 106.983 34.8207 106.35 35.682C105.742 36.518 104.931 37.1767 103.918 37.658C102.904 38.1393 101.777 38.38 100.536 38.38ZM101.714 33.136C102.955 33.136 103.956 32.7307 104.716 31.92C105.476 31.084 105.856 30.0327 105.856 28.766C105.856 27.9047 105.678 27.1447 105.324 26.486C104.994 25.8273 104.513 25.3207 103.88 24.966C103.272 24.586 102.562 24.396 101.752 24.396C100.941 24.396 100.219 24.586 99.5855 24.966C98.9775 25.3207 98.4835 25.8273 98.1035 26.486C97.7489 27.1447 97.5715 27.9047 97.5715 28.766C97.5715 29.602 97.7489 30.3493 98.1035 31.008C98.4582 31.6667 98.9522 32.186 99.5855 32.566C100.219 32.946 100.928 33.136 101.714 33.136ZM105.628 38V33.022L106.502 28.538L105.628 24.054V19.532H111.328V38H105.628ZM115.421 38V19.532H121.235V38H115.421ZM118.347 16.986C117.435 16.986 116.675 16.682 116.067 16.074C115.484 15.4407 115.193 14.6807 115.193 13.794C115.193 12.882 115.484 12.122 116.067 11.514C116.675 10.906 117.435 10.602 118.347 10.602C119.259 10.602 120.006 10.906 120.589 11.514C121.172 12.122 121.463 12.882 121.463 13.794C121.463 14.6807 121.172 15.4407 120.589 16.074C120.006 16.682 119.259 16.986 118.347 16.986ZM128.977 38.418C127.989 38.418 127.166 38.076 126.507 37.392C125.849 36.708 125.519 35.8847 125.519 34.922C125.519 33.9087 125.849 33.0727 126.507 32.414C127.166 31.73 127.989 31.388 128.977 31.388C129.991 31.388 130.814 31.73 131.447 32.414C132.106 33.0727 132.435 33.9087 132.435 34.922C132.435 35.8847 132.106 36.708 131.447 37.392C130.814 38.076 129.991 38.418 128.977 38.418ZM138.268 38V11.894H144.082V38H138.268ZM134.088 24.472V19.532H148.262V24.472H134.088ZM156.637 38L148.809 19.532H155.079L160.399 34.922H157.663L162.983 19.532H169.139L161.311 37.962L156.637 38Z" fill="white"/>
</svg>
