<svg width="35" height="35" viewBox="0 0 35 35" fill="none" xmlns="http://www.w3.org/2000/svg">
<rect width="35" height="35" rx="5" fill="#262628"/>
<path d="M11.1665 22.1667H10.3332C9.89114 22.1667 9.46722 21.9911 9.15466 21.6785C8.8421 21.366 8.6665 20.942 8.6665 20.5V12.1667C8.6665 11.7246 8.8421 11.3007 9.15466 10.9882C9.46722 10.6756 9.89114 10.5 10.3332 10.5H23.6665C24.1085 10.5 24.5325 10.6756 24.845 10.9882C25.1576 11.3007 25.3332 11.7246 25.3332 12.1667V20.5C25.3332 20.942 25.1576 21.366 24.845 21.6785C24.5325 21.9911 24.1085 22.1667 23.6665 22.1667H22.8332" stroke="white" stroke-width="2" stroke-linecap="round" stroke-linejoin="round"/>
<path d="M17.0002 20.5L21.1668 25.5H12.8335L17.0002 20.5Z" stroke="#CC8E45" stroke-width="2" stroke-linecap="round" stroke-linejoin="round"/>
</svg>
