<svg width="32" height="33" viewBox="0 0 32 33" fill="none" xmlns="http://www.w3.org/2000/svg">
<path d="M6.6665 23.2389H5.33317C4.62593 23.2389 3.94765 22.958 3.44755 22.4579C2.94746 21.9578 2.6665 21.2795 2.6665 20.5723V7.23893C2.6665 6.53169 2.94746 5.85341 3.44755 5.35331C3.94765 4.85322 4.62593 4.57227 5.33317 4.57227H26.6665C27.3737 4.57227 28.052 4.85322 28.5521 5.35331C29.0522 5.85341 29.3332 6.53169 29.3332 7.23893V20.5723C29.3332 21.2795 29.0522 21.9578 28.5521 22.4579C28.052 22.958 27.3737 23.2389 26.6665 23.2389H25.3332" stroke="white" stroke-width="3" stroke-linecap="round" stroke-linejoin="round"/>
<path d="M16.0002 20.5723L22.6668 28.5723H9.3335L16.0002 20.5723Z" stroke="#CC8E45" stroke-width="3" stroke-linecap="round" stroke-linejoin="round"/>
</svg>
