<svg width="118" height="34" viewBox="0 0 118 34" fill="none" xmlns="http://www.w3.org/2000/svg">
<path d="M5.49512 22.1539H4.3961C3.81314 22.1539 3.25406 21.9224 2.84185 21.5102C2.42964 21.0979 2.19806 20.5389 2.19806 19.9559V8.96571C2.19806 8.38275 2.42964 7.82367 2.84185 7.41146C3.25406 6.99925 3.81314 6.76767 4.3961 6.76767H21.9804C22.5634 6.76767 23.1224 6.99925 23.5347 7.41146C23.9469 7.82367 24.1784 8.38275 24.1784 8.96571V19.9559C24.1784 20.5389 23.9469 21.0979 23.5347 21.5102C23.1224 21.9224 22.5634 22.1539 21.9804 22.1539H20.8814" stroke="white" stroke-width="3" stroke-linecap="round" stroke-linejoin="round"/>
<path d="M13.1882 19.9559L18.6833 26.55H7.69312L13.1882 19.9559Z" stroke="#CC8E45" stroke-width="3" stroke-linecap="round" stroke-linejoin="round"/>
<path d="M44.2647 18.575V15.525H48.0647C48.548 15.525 48.9897 15.425 49.3897 15.225C49.7897 15.025 50.1064 14.7333 50.3397 14.35C50.573 13.9667 50.6897 13.5 50.6897 12.95C50.6897 12.4167 50.573 11.9583 50.3397 11.575C50.1064 11.1917 49.7897 10.9 49.3897 10.7C48.9897 10.5 48.548 10.4 48.0647 10.4H44.2647V7.35H48.6397C49.7564 7.35 50.7647 7.575 51.6647 8.025C52.5647 8.475 53.273 9.125 53.7897 9.975C54.323 10.8083 54.5897 11.8 54.5897 12.95C54.5897 14.1 54.323 15.1 53.7897 15.95C53.273 16.7833 52.5647 17.4333 51.6647 17.9C50.7647 18.35 49.7564 18.575 48.6397 18.575H44.2647ZM41.2647 25V7.35H45.1897V25H41.2647ZM56.6129 25V6.85H60.4379V25H56.6129ZM68.2065 25.25C67.0898 25.25 66.0898 24.975 65.2065 24.425C64.3398 23.875 63.6482 23.125 63.1315 22.175C62.6315 21.225 62.3815 20.1417 62.3815 18.925C62.3815 17.7083 62.6315 16.625 63.1315 15.675C63.6482 14.725 64.3398 13.975 65.2065 13.425C66.0898 12.875 67.0898 12.6 68.2065 12.6C69.0232 12.6 69.7565 12.7583 70.4065 13.075C71.0732 13.3917 71.6148 13.8333 72.0315 14.4C72.4482 14.95 72.6815 15.5833 72.7315 16.3V21.55C72.6815 22.2667 72.4482 22.9083 72.0315 23.475C71.6315 24.025 71.0982 24.4583 70.4315 24.775C69.7648 25.0917 69.0232 25.25 68.2065 25.25ZM68.9815 21.8C69.7982 21.8 70.4565 21.5333 70.9565 21C71.4565 20.45 71.7065 19.7583 71.7065 18.925C71.7065 18.3583 71.5898 17.8583 71.3565 17.425C71.1398 16.9917 70.8232 16.6583 70.4065 16.425C70.0065 16.175 69.5398 16.05 69.0065 16.05C68.4732 16.05 67.9982 16.175 67.5815 16.425C67.1815 16.6583 66.8565 16.9917 66.6065 17.425C66.3732 17.8583 66.2565 18.3583 66.2565 18.925C66.2565 19.475 66.3732 19.9667 66.6065 20.4C66.8398 20.8333 67.1648 21.175 67.5815 21.425C67.9982 21.675 68.4648 21.8 68.9815 21.8ZM71.5565 25V21.725L72.1315 18.775L71.5565 15.825V12.85H75.3065V25H71.5565ZM77.9997 25V12.85H81.8247V25H77.9997ZM79.9247 11.175C79.3247 11.175 78.8247 10.975 78.4247 10.575C78.0413 10.1583 77.8497 9.65833 77.8497 9.075C77.8497 8.475 78.0413 7.975 78.4247 7.575C78.8247 7.175 79.3247 6.975 79.9247 6.975C80.5247 6.975 81.0163 7.175 81.3997 7.575C81.783 7.975 81.9747 8.475 81.9747 9.075C81.9747 9.65833 81.783 10.1583 81.3997 10.575C81.0163 10.975 80.5247 11.175 79.9247 11.175ZM86.9182 25.275C86.2682 25.275 85.7265 25.05 85.2932 24.6C84.8599 24.15 84.6432 23.6083 84.6432 22.975C84.6432 22.3083 84.8599 21.7583 85.2932 21.325C85.7265 20.875 86.2682 20.65 86.9182 20.65C87.5849 20.65 88.1265 20.875 88.5432 21.325C88.9765 21.7583 89.1932 22.3083 89.1932 22.975C89.1932 23.6083 88.9765 24.15 88.5432 24.6C88.1265 25.05 87.5849 25.275 86.9182 25.275ZM93.0059 25V7.825H96.8309V25H93.0059ZM90.2559 16.1V12.85H99.5809V16.1H90.2559ZM105.091 25L99.9413 12.85H104.066L107.566 22.975H105.766L109.266 12.85H113.316L108.166 24.975L105.091 25Z" fill="white"/>
</svg>
