<svg width="33" height="25" viewBox="0 0 33 25" fill="none" xmlns="http://www.w3.org/2000/svg">
<g clip-path="url(#clip0_429_36)">
<path d="M27.549 8.17995C27.4039 7.59989 27.1082 7.06842 26.6918 6.63922C26.2755 6.21002 25.7533 5.89828 25.1779 5.7355C23.0757 5.22217 14.6668 5.22217 14.6668 5.22217C14.6668 5.22217 6.25793 5.22217 4.15571 5.78439C3.58035 5.94717 3.05813 6.25891 2.6418 6.68811C2.22548 7.11731 1.92979 7.64878 1.7846 8.22883C1.39986 10.3623 1.21167 12.5265 1.22238 14.6944C1.20866 16.8786 1.39687 19.0593 1.7846 21.2088C1.94466 21.7709 2.24698 22.2821 2.66233 22.6932C3.07769 23.1043 3.59205 23.4013 4.15571 23.5555C6.25793 24.1177 14.6668 24.1177 14.6668 24.1177C14.6668 24.1177 23.0757 24.1177 25.1779 23.5555C25.7533 23.3927 26.2755 23.081 26.6918 22.6518C27.1082 22.2226 27.4039 21.6911 27.549 21.1111C27.9308 18.9937 28.119 16.8459 28.1113 14.6944C28.125 12.5102 27.9368 10.3295 27.549 8.17995Z" stroke="white" stroke-opacity="0.8" stroke-width="1.5" stroke-linecap="round" stroke-linejoin="round"/>
<path d="M11.9165 18.6911L18.9443 14.6944L11.9165 10.6978V18.6911Z" stroke="white" stroke-opacity="0.8" stroke-width="1.5" stroke-linecap="round" stroke-linejoin="round"/>
</g>
<circle cx="28" cy="5" r="5" fill="#FF000F"/>
<defs>
<clipPath id="clip0_429_36">
<rect width="29" height="21" fill="white" transform="translate(0 4)"/>
</clipPath>
</defs>
</svg>
