<svg width="65" height="22" viewBox="0 0 65 22" fill="none" xmlns="http://www.w3.org/2000/svg">
<path d="M38.8011 8.36364C38.7415 7.85985 38.4995 7.46875 38.0753 7.19034C37.651 6.91193 37.1307 6.77273 36.5142 6.77273C36.0634 6.77273 35.669 6.84564 35.331 6.99148C34.9962 7.13731 34.7344 7.33783 34.5455 7.59304C34.3598 7.84825 34.267 8.13826 34.267 8.46307C34.267 8.73485 34.3317 8.96851 34.4609 9.16406C34.5935 9.3563 34.7625 9.51705 34.968 9.64631C35.1735 9.77225 35.389 9.87666 35.6143 9.95952C35.8397 10.0391 36.0469 10.1037 36.2358 10.1534L37.2699 10.4318C37.535 10.5014 37.83 10.5975 38.1548 10.7202C38.483 10.8428 38.7962 11.0102 39.0945 11.2223C39.3961 11.4311 39.6446 11.6996 39.8402 12.0277C40.0357 12.3558 40.1335 12.7585 40.1335 13.2358C40.1335 13.786 39.9893 14.2831 39.701 14.7273C39.416 15.1714 38.9983 15.5244 38.4482 15.7862C37.9013 16.0481 37.2367 16.179 36.4545 16.179C35.7254 16.179 35.094 16.0613 34.5604 15.826C34.0301 15.5907 33.6125 15.2625 33.3075 14.8416C33.0059 14.4207 32.8352 13.9318 32.7955 13.375H34.0682C34.1013 13.7595 34.2306 14.0777 34.456 14.3295C34.6847 14.5781 34.973 14.7637 35.321 14.8864C35.6723 15.0057 36.0502 15.0653 36.4545 15.0653C36.9252 15.0653 37.3478 14.9891 37.7223 14.8366C38.0968 14.6809 38.3935 14.4654 38.6122 14.1903C38.831 13.9119 38.9403 13.5871 38.9403 13.2159C38.9403 12.8778 38.8459 12.6027 38.657 12.3906C38.468 12.1785 38.2195 12.0062 37.9112 11.8736C37.603 11.741 37.2699 11.625 36.9119 11.5256L35.6591 11.1676C34.8636 10.9389 34.2339 10.6125 33.7699 10.1882C33.3059 9.76397 33.0739 9.20881 33.0739 8.52273C33.0739 7.95265 33.228 7.45549 33.5362 7.03125C33.8478 6.60369 34.2654 6.27225 34.7891 6.03693C35.3161 5.7983 35.9044 5.67898 36.554 5.67898C37.2102 5.67898 37.7936 5.79664 38.304 6.03196C38.8144 6.26397 39.2188 6.58215 39.517 6.98651C39.8187 7.39086 39.9777 7.8499 39.9943 8.36364H38.8011ZM44.2488 16.179C43.7649 16.179 43.3257 16.0878 42.9313 15.9055C42.5369 15.7199 42.2237 15.4531 41.9917 15.1051C41.7596 14.7538 41.6436 14.3295 41.6436 13.8324C41.6436 13.3949 41.7298 13.0402 41.9022 12.7685C42.0745 12.4934 42.3049 12.2779 42.5932 12.1222C42.8816 11.9664 43.1998 11.8504 43.5478 11.7741C43.8991 11.6946 44.2521 11.6316 44.6067 11.5852C45.0707 11.5256 45.4469 11.4808 45.7353 11.451C46.0269 11.4179 46.2391 11.3632 46.3716 11.2869C46.5075 11.2107 46.5755 11.0781 46.5755 10.8892V10.8494C46.5755 10.3589 46.4412 9.97775 46.1728 9.70597C45.9076 9.43419 45.5049 9.2983 44.9647 9.2983C44.4045 9.2983 43.9654 9.42093 43.6472 9.66619C43.329 9.91146 43.1053 10.1733 42.976 10.4517L41.8624 10.054C42.0613 9.58996 42.3264 9.22869 42.6578 8.97017C42.9926 8.70833 43.3572 8.52604 43.7516 8.4233C44.1493 8.31723 44.5404 8.2642 44.9249 8.2642C45.1702 8.2642 45.4519 8.29403 45.7701 8.35369C46.0916 8.41004 46.4015 8.5277 46.6998 8.70668C47.0014 8.88565 47.2516 9.15578 47.4505 9.51705C47.6493 9.87831 47.7488 10.3622 47.7488 10.9688V16H46.5755V14.9659H46.5158C46.4363 15.1316 46.3037 15.3089 46.1181 15.4979C45.9325 15.6868 45.6855 15.8475 45.3773 15.9801C45.0691 16.1127 44.6929 16.179 44.2488 16.179ZM44.4277 15.125C44.8917 15.125 45.2828 15.0339 45.601 14.8516C45.9225 14.6693 46.1645 14.4339 46.3269 14.1456C46.4926 13.8572 46.5755 13.554 46.5755 13.2358V12.1619C46.5257 12.2216 46.4164 12.2763 46.2473 12.326C46.0816 12.3724 45.8894 12.4138 45.6706 12.4503C45.4552 12.4834 45.2447 12.5133 45.0392 12.5398C44.8371 12.563 44.673 12.5829 44.5471 12.5994C44.2421 12.6392 43.9571 12.7038 43.6919 12.7933C43.4301 12.8795 43.218 13.0104 43.0556 13.1861C42.8965 13.3584 42.8169 13.5937 42.8169 13.892C42.8169 14.2997 42.9677 14.608 43.2694 14.8168C43.5743 15.0223 43.9604 15.125 44.4277 15.125ZM55.8612 8.36364L53.0373 16H51.8441L49.0202 8.36364H50.293L52.4009 14.4489H52.4805L54.5884 8.36364H55.8612ZM60.3381 16.1591C59.6023 16.1591 58.9676 15.9967 58.4339 15.6719C57.9036 15.3438 57.4943 14.8864 57.206 14.2997C56.9209 13.7098 56.7784 13.0237 56.7784 12.2415C56.7784 11.4593 56.9209 10.7699 57.206 10.1733C57.4943 9.57339 57.8954 9.10606 58.4091 8.77131C58.9261 8.43324 59.5294 8.2642 60.2188 8.2642C60.6165 8.2642 61.0092 8.33049 61.397 8.46307C61.7848 8.59564 62.1378 8.81108 62.456 9.10938C62.7741 9.40436 63.0277 9.79545 63.2166 10.2827C63.4055 10.7699 63.5 11.3698 63.5 12.0824V12.5795H57.6136V11.5653H62.3068C62.3068 11.1345 62.2206 10.75 62.0483 10.4119C61.8793 10.0739 61.6373 9.80705 61.3224 9.61151C61.0109 9.41596 60.643 9.31818 60.2188 9.31818C59.7514 9.31818 59.3471 9.43419 59.0057 9.66619C58.6676 9.89489 58.4074 10.1932 58.2251 10.5611C58.0429 10.929 57.9517 11.3234 57.9517 11.7443V12.4205C57.9517 12.9972 58.0511 13.486 58.25 13.8871C58.4522 14.2848 58.7322 14.5881 59.0902 14.7969C59.4482 15.0024 59.8641 15.1051 60.3381 15.1051C60.6463 15.1051 60.9247 15.062 61.1733 14.9759C61.4252 14.8864 61.6423 14.7538 61.8246 14.5781C62.0069 14.3991 62.1477 14.1771 62.2472 13.9119L63.3807 14.2301C63.2614 14.6146 63.0608 14.9527 62.7791 15.2443C62.4974 15.5327 62.1494 15.758 61.7351 15.9205C61.3208 16.0795 60.8551 16.1591 60.3381 16.1591Z" fill="white" fill-opacity="0.8"/>
<rect width="22" height="22" rx="3" fill="#CC8E45"/>
<path d="M16.5083 7.05249L9.07874 14.4821L5.70166 11.105" stroke="black" stroke-width="2" stroke-linecap="round" stroke-linejoin="round"/>
</svg>
