<svg width="34" height="34" viewBox="0 0 34 34" fill="none" xmlns="http://www.w3.org/2000/svg">
<path d="M31.9317 9.09496C31.7634 8.42262 31.4207 7.8066 30.9381 7.30912C30.4556 6.81163 29.8503 6.4503 29.1834 6.26163C26.7467 5.66663 17 5.66663 17 5.66663C17 5.66663 7.25337 5.66663 4.8167 6.31829C4.1498 6.50697 3.5445 6.8683 3.06194 7.36578C2.57938 7.86327 2.23665 8.47929 2.06837 9.15163C1.62242 11.6245 1.40429 14.1331 1.4167 16.6458C1.40081 19.1774 1.61896 21.7051 2.06837 24.1966C2.2539 24.8481 2.6043 25.4407 3.08574 25.9171C3.56718 26.3936 4.16337 26.7379 4.8167 26.9166C7.25337 27.5683 17 27.5683 17 27.5683C17 27.5683 26.7467 27.5683 29.1834 26.9166C29.8503 26.7279 30.4556 26.3666 30.9381 25.8691C31.4207 25.3716 31.7634 24.7556 31.9317 24.0833C32.3742 21.629 32.5923 19.1396 32.5834 16.6458C32.5993 14.1141 32.3811 11.5864 31.9317 9.09496Z" fill="#CC8E45"/>
<path d="M13.8125 21.2783L21.9583 16.6458L13.8125 12.0133V21.2783Z" fill="black"/>
</svg>
